<svg xmlns="http://www.w3.org/2000/svg" aria-hidden="true" style="position:absolute;width:0;height:0;overflow:hidden"><defs><symbol id="icon-Icon-19" viewBox="0 0 32 32"><path stroke-linecap="round" stroke-linejoin="round" stroke-width="2.377" d="M10.027 11.662c1.061 2.209 2.506 4.279 4.337 6.11s3.901 3.277 6.11 4.337c.19.091.285.137.405.172.427.125.952.035 1.314-.224.102-.073.189-.16.363-.334.533-.533.799-.799 1.067-.973a3.046 3.046 0 0 1 3.322 0c.268.174.534.441 1.067.973l.297.297c.81.81 1.215 1.215 1.435 1.65a3.05 3.05 0 0 1 0 2.751c-.22.435-.625.84-1.435 1.65l-.24.24c-.807.807-1.211 1.211-1.759 1.519-.609.342-1.554.588-2.253.586-.629-.002-1.059-.124-1.919-.368-4.622-1.312-8.984-3.787-12.623-7.426S3.401 14.621 2.089 9.999c-.244-.86-.366-1.29-.368-1.919-.002-.698.244-1.644.586-2.253.308-.549.712-.952 1.519-1.759l.24-.24c.81-.81 1.215-1.215 1.65-1.435a3.05 3.05 0 0 1 2.751 0c.435.22.84.625 1.65 1.435l.297.297c.533.533.799.799.973 1.067a3.046 3.046 0 0 1 0 3.322c-.174.268-.441.534-.973 1.067a3.069 3.069 0 0 0-.334.363 1.593 1.593 0 0 0-.224 1.314c.035.12.081.215.172.405z"/></symbol><symbol id="icon-question" viewBox="0 0 32 32"><path stroke-linecap="round" stroke-linejoin="round" stroke-width="2.377" d="M12.952 10.213a3.423 3.423 0 0 1 3.811-2.24 3.428 3.428 0 0 1 2.847 3.381c0 2.284-3.426 3.426-3.426 3.426m.044 4.572h.015M12.8 26.514l2.225 2.966c.331.441.496.662.699.741a.762.762 0 0 0 .552 0c.203-.079.368-.299.699-.741l2.225-2.966c.447-.596.67-.893.942-1.121a3.037 3.037 0 0 1 1.253-.626c.345-.082.718-.082 1.462-.082 2.13 0 3.195 0 4.035-.348a4.572 4.572 0 0 0 2.474-2.474c.348-.84.348-1.905.348-4.035V9.142c0-2.56 0-3.84-.498-4.818a4.576 4.576 0 0 0-1.998-1.998c-.978-.498-2.258-.498-4.818-.498H9.6c-2.56 0-3.84 0-4.818.498a4.576 4.576 0 0 0-1.998 1.998c-.498.978-.498 2.258-.498 4.818v8.686c0 2.13 0 3.195.348 4.035a4.572 4.572 0 0 0 2.474 2.474c.84.348 1.905.348 4.035.348.745 0 1.117 0 1.462.082.46.109.889.323 1.253.626.272.227.496.525.942 1.121z"/></symbol><symbol id="icon-Icon-17" viewBox="0 0 32 32"><path stroke-linecap="round" stroke-linejoin="round" stroke-width="2.311" d="M4.889 30.815v-7.407m0-14.815V1.186M1.185 4.889h7.407M1.185 27.111h7.407m8.889-24.444-2.569 6.68c-.418 1.086-.627 1.629-.952 2.086a4.448 4.448 0 0 1-1.047 1.047c-.457.325-1 .534-2.086.951L4.147 16l6.68 2.569c1.086.418 1.629.627 2.086.952.405.288.759.642 1.047 1.047.325.457.534 1 .952 2.086l2.569 6.68 2.569-6.68c.418-1.086.627-1.629.952-2.086a4.448 4.448 0 0 1 1.047-1.047c.457-.325 1-.534 2.086-.952L30.815 16l-6.68-2.569c-1.086-.418-1.629-.627-2.086-.951a4.448 4.448 0 0 1-1.047-1.047c-.325-.457-.534-1-.952-2.086l-2.569-6.68z"/></symbol><symbol id="icon-file" viewBox="0 0 28 32"><path stroke-linecap="round" stroke-linejoin="round" stroke-width="2.311" d="M25.185 13.037V8.296c0-2.489 0-3.734-.484-4.684a4.445 4.445 0 0 0-1.942-1.942c-.951-.484-2.195-.484-4.684-.484H8.594c-2.489 0-3.734 0-4.684.484a4.445 4.445 0 0 0-1.942 1.942c-.484.951-.484 2.195-.484 4.684v15.407c0 2.489 0 3.734.484 4.684a4.445 4.445 0 0 0 1.942 1.942c.951.484 2.195.484 4.684.484h4.741m.739-16.294H7.407m1.482 5.925H7.407M19.259 8.593H7.407m13.33 11.601c-1.185-1.347-3.161-1.709-4.645-.476s-1.693 3.295-.528 4.753c1.166 1.459 5.173 4.862 5.173 4.862s4.007-3.404 5.173-4.862c1.166-1.458.982-3.533-.528-4.753s-3.46-.871-4.645.476z"/></symbol><symbol id="icon-shevron-left" viewBox="0 0 32 32"><path stroke-linecap="round" stroke-linejoin="round" stroke-width="3.467" d="M22.667 29.333 9.334 16 22.667 2.667"/></symbol><symbol id="icon-download" viewBox="0 0 32 32"><path stroke-linecap="round" stroke-linejoin="round" stroke-width="2.447" d="M30.118 20.706v1.882c0 2.636 0 3.953-.513 4.96a4.706 4.706 0 0 1-2.057 2.057c-1.007.513-2.324.513-4.96.513H9.412c-2.636 0-3.953 0-4.96-.513a4.711 4.711 0 0 1-2.057-2.057c-.513-1.007-.513-2.324-.513-4.96v-1.882m21.961-7.843L16 20.706m0 0-7.843-7.843M16 20.706V1.882"/></symbol><symbol id="icon-img" viewBox="0 0 32 32"><path stroke-linecap="round" stroke-linejoin="round" stroke-width="2.311" d="m4.551 28.93 9.773-9.773c.587-.587.88-.88 1.218-.99.297-.097.618-.097.916 0 .338.11.632.403 1.218.99l9.707 9.707m-8.42-8.42 4.25-4.25c.587-.587.88-.88 1.218-.99.297-.097.618-.097.916 0 .338.11.632.403 1.218.99l4.25 4.25m-17.778-8.888a2.964 2.964 0 1 1-5.927-.001 2.964 2.964 0 0 1 5.927.001zM8.296 29.333h15.407c2.489 0 3.734 0 4.684-.484a4.445 4.445 0 0 0 1.942-1.942c.484-.951.484-2.195.484-4.684V9.779c0-2.489 0-3.734-.484-4.684a4.445 4.445 0 0 0-1.942-1.942c-.951-.484-2.195-.484-4.684-.484H8.296c-2.489 0-3.734 0-4.684.484A4.445 4.445 0 0 0 1.67 5.095c-.484.951-.484 2.195-.484 4.684v12.444c0 2.489 0 3.734.484 4.684a4.445 4.445 0 0 0 1.942 1.942c.951.484 2.195.484 4.684.484z"/></symbol><symbol id="icon-people" viewBox="0 0 32 32"><path stroke-linecap="round" stroke-linejoin="round" stroke-width="2.311" d="M21.926 4.249a6.667 6.667 0 0 1 0 11.948m2.963 7.753c2.239 1.013 4.256 2.665 5.926 4.79m-29.63.001c2.884-3.67 6.799-5.926 11.111-5.926s8.227 2.256 11.111 5.926m-4.444-18.519a6.667 6.667 0 1 1-13.334 0 6.667 6.667 0 0 1 13.334 0z"/></symbol><symbol id="icon-stars" viewBox="0 0 32 32"><path stroke-linecap="round" stroke-linejoin="round" stroke-width="2.311" d="M25.63 10.074V2.667M6.37 29.333v-7.407M21.926 6.37h7.407M2.667 25.63h7.407M7.852 1.185 6.69 3.509c-.393.787-.59 1.18-.853 1.521a4.436 4.436 0 0 1-.807.807c-.341.263-.734.459-1.521.853L1.185 7.852l2.324 1.162c.787.393 1.18.59 1.521.853.302.233.574.504.807.807.263.341.459.734.853 1.521l1.162 2.324 1.162-2.324c.393-.787.59-1.18.853-1.521.233-.302.504-.573.807-.807.341-.263.734-.459 1.521-.853l2.324-1.162-2.324-1.162c-.787-.393-1.18-.59-1.521-.853a4.436 4.436 0 0 1-.807-.807c-.263-.341-.459-.734-.853-1.521L7.852 1.185zM23.407 16l-1.409 2.818c-.393.787-.59 1.18-.853 1.521a4.436 4.436 0 0 1-.807.807c-.341.263-.734.459-1.521.853l-2.818 1.409 2.818 1.409c.787.393 1.18.59 1.521.853.302.233.574.504.807.807.263.341.459.734.853 1.521l1.409 2.818 1.409-2.818c.393-.787.59-1.18.853-1.521.233-.302.504-.574.807-.807.341-.263.734-.459 1.521-.853l2.818-1.409-2.818-1.409c-.787-.393-1.18-.59-1.521-.853a4.436 4.436 0 0 1-.807-.807c-.263-.341-.459-.734-.853-1.521L23.407 16z"/></symbol><symbol id="icon-slash" viewBox="0 0 18 32"><path stroke-linecap="round" stroke-linejoin="round" stroke-width="2.311" d="m1.482 30.815 14.815-29.63"/></symbol><symbol id="icon-pazl" viewBox="0 0 32 32"><path stroke-linecap="round" stroke-linejoin="round" stroke-width="2.311" d="m16 1.185 5.333 5.333c3.556-9.333 13.482.593 4.148 4.148l5.333 5.333-5.333 5.333c-3.556-9.333-13.482.593-4.148 4.148L16 30.813l-5.333-5.333c-3.556 9.333-13.481-.593-4.148-4.148l-5.333-5.333 5.333-5.333c3.556 9.333 13.481-.593 4.148-4.148L16 1.185z"/></symbol><symbol id="icon-burger" viewBox="0 0 32 32"><path stroke-linecap="round" stroke-linejoin="round" stroke-width="2.447" d="M30.118 16H11.294m18.824-9.412H1.883m28.235 18.824H1.883"/></symbol><symbol id="icon-money" viewBox="0 0 32 32"><path stroke-linecap="round" stroke-linejoin="round" stroke-width="2.311" d="M18.963 11.556h-3.704a2.222 2.222 0 0 0 0 4.444h1.482a2.222 2.222 0 0 1 0 4.444h-3.704M16 10.074v1.482m0 8.888v1.482M24.889 16h.015M7.111 16h.015m-5.941-5.63v11.259c0 1.659 0 2.489.323 3.123a2.958 2.958 0 0 0 1.295 1.295c.634.323 1.464.323 3.123.323h20.148c1.659 0 2.489 0 3.123-.323a2.958 2.958 0 0 0 1.295-1.295c.323-.634.323-1.464.323-3.123V10.37c0-1.659 0-2.489-.323-3.123a2.958 2.958 0 0 0-1.295-1.295c-.634-.323-1.464-.323-3.123-.323H5.926c-1.659 0-2.489 0-3.123.323a2.958 2.958 0 0 0-1.295 1.295c-.323.634-.323 1.464-.323 3.123zM25.63 16a.741.741 0 1 1-1.483 0 .741.741 0 0 1 1.483 0zM7.852 16a.741.741 0 1 1-1.483 0 .741.741 0 0 1 1.483 0z"/></symbol><symbol id="icon-roll" viewBox="0 0 31 32"><path stroke-linecap="round" stroke-linejoin="round" stroke-width="2.311" d="M25.482 4.889c0 .688 0 1.033-.057 1.319a2.965 2.965 0 0 1-2.328 2.328c-.286.057-.63.057-1.319.057H5.482c-.688 0-1.033 0-1.319-.057a2.965 2.965 0 0 1-2.328-2.328c-.057-.286-.057-.63-.057-1.319s0-1.033.057-1.319a2.965 2.965 0 0 1 2.328-2.328c.286-.057.63-.057 1.319-.057h16.296c.688 0 1.033 0 1.319.057a2.965 2.965 0 0 1 2.328 2.328c.057.286.057.63.057 1.319zm0 0c1.381 0 2.071 0 2.615.226a2.966 2.966 0 0 1 1.604 1.604c.226.545.226 1.235.226 2.615v.444c0 1.659 0 2.489-.323 3.123a2.963 2.963 0 0 1-1.295 1.295c-.634.323-1.463.323-3.123.323h-5.333c-1.659 0-2.489 0-3.123.323a2.958 2.958 0 0 0-1.295 1.295c-.323.634-.323 1.464-.323 3.123v1.185m-.594 10.37h1.185c.83 0 1.245 0 1.561-.161.279-.142.505-.369.647-.647.161-.317.161-.732.161-1.561v-5.63c0-.83 0-1.245-.161-1.561a1.482 1.482 0 0 0-.647-.647c-.317-.162-.732-.162-1.561-.162h-1.185c-.83 0-1.245 0-1.561.162a1.482 1.482 0 0 0-.647.647c-.161.317-.161.732-.161 1.561v5.63c0 .83 0 1.245.161 1.561.142.279.369.505.647.647.317.161.732.161 1.561.161z"/></symbol><symbol id="icon-smile" viewBox="0 0 32 32"><path stroke-linecap="round" stroke-linejoin="round" stroke-width="2.311" d="M10.074 18.963s2.222 2.963 5.926 2.963 5.926-2.963 5.926-2.963m-1.482-7.407h.015m-8.904 0h.015M30.815 16c0 8.182-6.633 14.815-14.815 14.815S1.185 24.182 1.185 16C1.185 7.818 7.818 1.185 16 1.185S30.815 7.818 30.815 16zm-9.63-4.444a.741.741 0 1 1-1.483 0 .741.741 0 0 1 1.483 0zm-8.889 0a.741.741 0 1 1-1.483 0 .741.741 0 0 1 1.483 0z"/></symbol><symbol id="icon-info" viewBox="0 0 32 32"><path stroke-linecap="round" stroke-linejoin="round" stroke-width="2.377" d="M16 18.59v-5.333m0-5.333h.015M12.8 26.514l2.225 2.966c.331.441.496.662.699.741a.762.762 0 0 0 .552 0c.203-.079.368-.299.699-.741l2.225-2.966c.447-.596.67-.893.942-1.121a3.037 3.037 0 0 1 1.253-.626c.345-.082.718-.082 1.462-.082 2.13 0 3.195 0 4.035-.348a4.572 4.572 0 0 0 2.474-2.474c.348-.84.348-1.905.348-4.035V9.142c0-2.56 0-3.84-.498-4.818a4.576 4.576 0 0 0-1.998-1.998c-.978-.498-2.258-.498-4.818-.498H9.6c-2.56 0-3.84 0-4.818.498a4.576 4.576 0 0 0-1.998 1.998c-.498.978-.498 2.258-.498 4.818v8.686c0 2.13 0 3.195.348 4.035a4.572 4.572 0 0 0 2.474 2.474c.84.348 1.905.348 4.035.348.745 0 1.117 0 1.462.082.46.109.889.323 1.253.626.272.227.496.525.942 1.121z"/></symbol><symbol id="icon-close" viewBox="0 0 32 32"><path stroke-linecap="round" stroke-linejoin="round" stroke-width="4.16" d="M29.333 2.667 2.666 29.334m.001-26.667 26.667 26.667"/></symbol><symbol id="icon-plus" viewBox="0 0 32 32"><path stroke-linecap="round" stroke-linejoin="round" stroke-width="3.2" d="M16 1.641v28.718M1.641 16h28.718"/></symbol><symbol id="icon-right" viewBox="0 0 32 32"><path stroke-linecap="round" stroke-linejoin="round" stroke-width="2.311" d="M16 21.926 21.926 16m0 0L16 10.074M21.926 16H10.074m20.741 0c0 8.182-6.633 14.815-14.815 14.815S1.185 24.182 1.185 16C1.185 7.818 7.818 1.185 16 1.185S30.815 7.818 30.815 16z"/></symbol><symbol id="icon-left" viewBox="0 0 32 32"><path stroke-linecap="round" stroke-linejoin="round" stroke-width="2.311" d="M16 10.074 10.074 16m0 0L16 21.926M10.074 16h11.852m8.889 0c0 8.182-6.633 14.815-14.815 14.815S1.185 24.182 1.185 16C1.185 7.818 7.818 1.185 16 1.185S30.815 7.818 30.815 16z"/></symbol></defs></svg>