<svg width="16" height="18" viewBox="0 0 16 18" fill="none" xmlns="http://www.w3.org/2000/svg">
<g clip-path="url(#clip0_2006_228)">
<path d="M7.47206 8.58118L0.0662537 16.4773C0.14942 16.7773 0.298873 17.0539 0.503188 17.286C0.707502 17.5182 0.961269 17.6997 1.24509 17.8168C1.52891 17.9338 1.83527 17.9833 2.14075 17.9613C2.44623 17.9394 2.74275 17.8467 3.00763 17.6903L11.3406 12.8606L7.47206 8.58118Z" fill="#EA4335"/>
<path d="M14.9606 7.23902L11.3572 5.13855L7.30106 8.76081L11.3737 12.8493L14.9497 10.7713C15.2665 10.6025 15.5318 10.3487 15.717 10.0374C15.9021 9.72602 16 9.36906 16 9.00515C16 8.64124 15.9021 8.28427 15.717 7.97293C15.5318 7.66159 15.2665 7.40776 14.9497 7.23895L14.9606 7.23902Z" fill="#FBBC04"/>
<path d="M0.0662388 1.4939C0.0215009 1.66232 -0.000782058 1.83609 -1.11823e-05 2.01055V15.9607C0.000430572 16.1351 0.0226929 16.3087 0.0662388 16.4774L7.72592 8.78345L0.0662388 1.4939Z" fill="#4285F4"/>
<path d="M7.52725 8.98563L11.3571 5.13865L3.03525 0.286414C2.72215 0.099812 2.36604 0.000987498 2.00319 3.90087e-06C1.10275 -0.00177702 0.311129 0.606407 0.0662537 1.48828L7.52725 8.98563Z" fill="#34A853"/>
</g>
<defs>
<clipPath id="clip0_2006_228">
<rect width="16" height="18" fill="white"/>
</clipPath>
</defs>
</svg>
